<svg width="16" height="16" viewBox="0 0 16 16" fill="none" xmlns="http://www.w3.org/2000/svg">
<path d="M2.14417 4.09622V13.2052C2.14417 13.5503 2.28126 13.8813 2.5253 14.1253C2.76934 14.3694 3.10033 14.5065 3.44545 14.5065H12.5544C12.8995 14.5065 13.2305 14.3694 13.4746 14.1253C13.7186 13.8813 13.8557 13.5503 13.8557 13.2052V4.09622C13.8557 3.7511 13.7186 3.42011 13.4746 3.17607C13.2305 2.93203 12.8995 2.79493 12.5544 2.79493H11.2531V1.49365H9.95186V2.79493H6.04801V1.49365H4.74673V2.79493H3.44545C3.10033 2.79493 2.76934 2.93203 2.5253 3.17607C2.28126 3.42011 2.14417 3.7511 2.14417 4.09622ZM12.5544 13.2052H3.44545V5.3975H12.5544V13.2052Z" fill="#5B6266"/>
</svg>
